<?xml version="1.0" encoding="UTF-8" standalone="no"?>
<svg
   data-name="Layer 1"
   width="860.13137"
   height="571.14799"
   viewBox="0 0 860.13137 571.14799"
   version="1.1"
   id="svg74"
   sodipodi:docname="error-404.svg"
   inkscape:version="1.1.1 (eb90963e84, 2021-10-02)"
   xmlns:inkscape="http://www.inkscape.org/namespaces/inkscape"
   xmlns:sodipodi="http://sodipodi.sourceforge.net/DTD/sodipodi-0.dtd"
   xmlns="http://www.w3.org/2000/svg"
   xmlns:svg="http://www.w3.org/2000/svg">
  <defs
     id="defs78">
    <rect
       x="93.867762"
       y="198.51729"
       width="992.66742"
       height="462.84943"
       id="rect9733" />
    <rect
       x="234.82107"
       y="309.95216"
       width="906.66535"
       height="405.24749"
       id="rect5349" />
    <rect
       x="123.69967"
       y="167.3019"
       width="890.97601"
       height="423.00797"
       id="rect2755-3" />
    <rect
       x="123.69967"
       y="167.3019"
       width="890.97601"
       height="423.00797"
       id="rect2755" />
    <rect
       x="93.86776"
       y="198.51729"
       width="992.66742"
       height="462.84943"
       id="rect9733-0" />
    <rect
       x="93.86776"
       y="198.51729"
       width="992.66742"
       height="462.84943"
       id="rect9733-9" />
  </defs>
  <sodipodi:namedview
     id="namedview76"
     pagecolor="#ffffff"
     bordercolor="#666666"
     borderopacity="1.0"
     inkscape:pageshadow="2"
     inkscape:pageopacity="0.0"
     inkscape:pagecheckerboard="0"
     showgrid="false"
     inkscape:zoom="0.34184058"
     inkscape:cx="-36.566753"
     inkscape:cy="279.36999"
     inkscape:window-width="1314"
     inkscape:window-height="704"
     inkscape:window-x="52"
     inkscape:window-y="27"
     inkscape:window-maximized="1"
     inkscape:current-layer="svg74" />
  <path
     d="M867.57068,709.78146c-4.71167-5.94958-6.6369-7.343-11.28457-13.34761q-56.7644-73.41638-106.70791-151.79237-33.92354-53.23-64.48275-108.50439-14.54864-26.2781-28.29961-52.96872-10.67044-20.6952-20.8646-41.63793c-1.94358-3.98782-3.8321-7.99393-5.71122-12.00922-4.42788-9.44232-8.77341-18.93047-13.43943-28.24449-5.31686-10.61572-11.789-21.74485-21.55259-28.877a29.40493,29.40493,0,0,0-15.31855-5.89458c-7.948-.51336-15.28184,2.76855-22.17568,6.35295-50.43859,26.301-97.65922,59.27589-140.3696,96.79771A730.77816,730.77816,0,0,0,303.32241,496.24719c-1.008,1.43927-3.39164.06417-2.37419-1.38422q6.00933-8.49818,12.25681-16.81288A734.817,734.817,0,0,1,500.80465,303.06436q18.24824-11.82581,37.18269-22.54245c6.36206-3.60275,12.75188-7.15967,19.25136-10.49653,6.37146-3.27274,13.13683-6.21547,20.41563-6.32547,24.7701-.385,37.59539,27.66695,46.40506,46.54248q4.15283,8.9106,8.40636,17.76626,16.0748,33.62106,33.38729,66.628,10.68453,20.379,21.83683,40.51955,34.7071,62.71816,73.77854,122.897c34.5059,53.1429,68.73651,100.08874,108.04585,149.78472C870.59617,709.21309,868.662,711.17491,867.57068,709.78146Z"
     transform="translate(-169.93432 -164.42601)"
     fill="#e4e4e4"
     id="path4" />
  <path
     d="m -1318.9364,621.79945 c -4.7117,-5.94958 -6.6369,-7.343 -11.2846,-13.34761 q -56.7644,-73.41638 -106.7079,-151.79237 -33.9235,-53.23 -64.4828,-108.50439 -14.5486,-26.2781 -28.2996,-52.96872 -10.6704,-20.6952 -20.8646,-41.63793 c -1.9435,-3.98782 -3.8321,-7.99393 -5.7112,-12.00922 -4.4279,-9.44232 -8.7734,-18.93047 -13.4394,-28.24449 -5.3169,-10.61572 -11.789,-21.74485 -21.5526,-28.877 a 29.40493,29.40493 0 0 0 -15.3186,-5.89458 c -7.948,-0.51336 -15.2818,2.76855 -22.1756,6.35295 -50.4386,26.301 -97.6593,59.27589 -140.3696,96.79771 a 730.77816,730.77816 0 0 0 -114.0418,126.59138 c -1.008,1.43927 -3.3916,0.0642 -2.3742,-1.38422 q 6.0093,-8.49818 12.2568,-16.81288 a 734.817,734.817 0 0 1 187.5996,-174.98573 q 18.2483,-11.82581 37.1827,-22.54245 c 6.3621,-3.60275 12.7519,-7.15967 19.2514,-10.49653 6.3715,-3.27274 13.1368,-6.21547 20.4156,-6.32547 24.7701,-0.385 37.5954,27.66695 46.4051,46.54248 q 4.1528,8.9106 8.4063,17.76626 16.0748,33.62106 33.3873,66.628 10.6846,20.379 21.8369,40.51955 34.7071,62.71816 73.7785,122.897 c 34.5059,53.1429 68.7365,100.08874 108.0459,149.78472 1.0819,1.37517 -0.8523,3.33699 -1.9436,1.94354 z"
     fill="#e4e4e4"
     id="path4-3" />
  <path
     d="M414.91613,355.804c-1.43911-1.60428-2.86927-3.20856-4.31777-4.81284-11.42244-12.63259-23.6788-25.11847-39.3644-32.36067a57.11025,57.11025,0,0,0-23.92679-5.54622c-8.56213.02753-16.93178,2.27348-24.84306,5.41792-3.74034,1.49427-7.39831,3.1902-11.00078,4.99614-4.11634,2.07182-8.15927,4.28118-12.1834,6.50883q-11.33112,6.27044-22.36816,13.09089-21.9606,13.57221-42.54566,29.21623-10.67111,8.11311-20.90174,16.75788-9.51557,8.03054-18.64618,16.492c-1.30169,1.20091-3.24527-.74255-1.94358-1.94347,1.60428-1.49428,3.22691-2.97938,4.84955-4.44613q6.87547-6.21546,13.9712-12.19257,12.93921-10.91827,26.54851-20.99312,21.16293-15.67614,43.78288-29.22541,11.30361-6.76545,22.91829-12.96259c2.33794-1.24675,4.70318-2.466,7.09572-3.6211a113.11578,113.11578,0,0,1,16.86777-6.86632,60.0063,60.0063,0,0,1,25.476-2.50265,66.32706,66.32706,0,0,1,23.50512,8.1314c15.40091,8.60812,27.34573,21.919,38.97,34.90915C418.03337,355.17141,416.09875,357.12405,414.91613,355.804Z"
     transform="translate(-169.93432 -164.42601)"
     fill="#e4e4e4"
     id="path6" />
  <path
     d="M730.47659,486.71092l36.90462-13.498,18.32327-6.70183c5.96758-2.18267,11.92082-4.66747,18.08988-6.23036a28.53871,28.53871,0,0,1,16.37356.20862,37.73753,37.73753,0,0,1,12.771,7.91666,103.63965,103.63965,0,0,1,10.47487,11.18643c3.98932,4.79426,7.91971,9.63877,11.86772,14.46706q24.44136,29.89094,48.56307,60.04134,24.12117,30.14991,47.91981,60.556,23.85681,30.48041,47.38548,61.21573,2.88229,3.76518,5.75966,7.53415c1.0598,1.38809,3.44949.01962,2.37472-1.38808Q983.582,650.9742,959.54931,620.184q-24.09177-30.86383-48.51647-61.46586-24.42421-30.60141-49.17853-60.93743-6.16706-7.55761-12.35445-15.09858c-3.47953-4.24073-6.91983-8.52718-10.73628-12.47427-7.00539-7.24516-15.75772-13.64794-26.23437-13.82166-6.15972-.10214-12.121,1.85248-17.844,3.92287-6.16968,2.232-12.32455,4.50571-18.48633,6.75941l-37.16269,13.59243-9.29067,3.3981c-1.64875.603-.93651,3.2619.73111,2.652Z"
     transform="translate(-169.93432 -164.42601)"
     fill="#e4e4e4"
     id="path8" />
  <path
     d="M306.18775,338.7841l-3.61042,2.93462c1.22123-1.02713,2.4908-1.99013,3.795-2.90144C306.31073,338.80665,306.24935,338.79473,306.18775,338.7841Z"
     transform="translate(-169.93432 -164.42601)"
     fill="#f2f2f2"
     id="path12" />
  <path
     d="M516.08388,450.36652A37.4811,37.4811,0,0,0,531.015,471.32518c2.82017,1.92011,6.15681,3.76209,7.12158,7.03463a8.37858,8.37858,0,0,1-.87362,6.1499,24.88351,24.88351,0,0,1-3.86126,5.04137l-.13667.512c-6.99843-4.14731-13.65641-9.3934-17.52227-16.55115s-4.40553-16.53895.34116-23.14544"
     transform="translate(-169.93432 -164.42601)"
     fill="#f2f2f2"
     id="path16" />
  <path
     d="M749.08388,653.36652A37.4811,37.4811,0,0,0,764.015,674.32518c2.82017,1.92011,6.15681,3.76209,7.12158,7.03463a8.37858,8.37858,0,0,1-.87362,6.1499,24.88351,24.88351,0,0,1-3.86126,5.04137l-.13667.512c-6.99843-4.14731-13.65641-9.3934-17.52227-16.55115s-4.40553-16.53895.34116-23.14544"
     transform="translate(-169.93432 -164.42601)"
     fill="#f2f2f2"
     id="path18" />
  <circle
     cx="649.24878"
     cy="51"
     r="51"
     fill="#5e72e4"
     id="circle22" />
  <path
     d="M911.21851,176.29639c-24.7168-3.34094-52.93512,10.01868-59.34131,34.12353a21.59653,21.59653,0,0,0-41.09351,2.10871l2.82972,2.02667a372.27461,372.27461,0,0,0,160.65881-.72638C957.07935,195.76,935.93537,179.63727,911.21851,176.29639Z"
     transform="translate(-169.93432 -164.42601)"
     fill="#f0f0f0"
     id="path24" />
  <path
     d="M805.21851,244.29639c-24.7168-3.34094-52.93512,10.01868-59.34131,34.12353a21.59653,21.59653,0,0,0-41.09351,2.10871l2.82972,2.02667a372.27461,372.27461,0,0,0,160.65881-.72638C851.07935,263.76,829.93537,247.63727,805.21851,244.29639Z"
     transform="translate(-169.93432 -164.42601)"
     fill="#f0f0f0"
     id="path26" />
  <path
     d="M1020.94552,257.15423a.98189.98189,0,0,1-.30176-.04688C756.237,173.48919,523.19942,184.42376,374.26388,208.32122c-20.26856,3.251-40.59131,7.00586-60.40381,11.16113-5.05811,1.05957-10.30567,2.19532-15.59668,3.37793-6.31885,1.40723-12.55371,2.85645-18.53223,4.30567q-3.873.917-7.59472,1.84863c-3.75831.92773-7.57178,1.89453-11.65967,2.957-4.56787,1.17774-9.209,2.41309-13.79737,3.67188a.44239.44239,0,0,1-.05127.01465l.00049.001c-5.18261,1.415-10.33789,2.8711-15.32324,4.3252-2.69824.77929-5.30371,1.54785-7.79932,2.30664-.2788.07715-.52587.15136-.77636.22754l-.53614.16308c-.31054.09473-.61718.1875-.92382.27539l-.01953.00586.00048.001-.81152.252c-.96777.293-1.91211.5791-2.84082.86426-24.54492,7.56641-38.03809,12.94922-38.17139,13.00195a1,1,0,1,1-.74414-1.85644c.13428-.05274,13.69336-5.46289,38.32764-13.05762.93213-.28613,1.87891-.57226,2.84961-.86621l.7539-.23438c.02588-.00976.05176-.01757.07813-.02539.30518-.08691.60986-.17968.91943-.27343l.53711-.16309c.26758-.08105.53125-.16113.80127-.23535,2.47852-.75391,5.09278-1.52441,7.79785-2.30664,4.98731-1.45508,10.14746-2.91113,15.334-4.32813.01611-.00586.03271-.00976.04883-.01464v-.001c4.60449-1.2627,9.26269-2.50293,13.84521-3.68457,4.09424-1.06348,7.915-2.03223,11.67969-2.96192q3.73755-.93017,7.60937-1.85253c5.98536-1.45118,12.23291-2.90235,18.563-4.3125,5.29932-1.1836,10.55567-2.32227,15.62207-3.38282,19.84326-4.16211,40.19776-7.92285,60.49707-11.17871C523.09591,182.415,756.46749,171.46282,1021.2463,255.2011a.99974.99974,0,0,1-.30078,1.95313Z"
     transform="translate(-169.93432 -164.42601)"
     fill="#ccc"
     id="path28" />
  <path
     d="M1028.875,735.26666l-857.75.30733a1.19068,1.19068,0,1,1,0-2.38136l857.75-.30734a1.19069,1.19069,0,0,1,0,2.38137Z"
     transform="translate(-169.93432 -164.42601)"
     fill="#cacaca"
     id="path72" />
  <text
     xml:space="preserve"
     id="text5347"
     style="fill:black;fill-opacity:1;line-height:1.25;stroke:none;font-family:Gayathri;font-style:normal;font-weight:normal;font-size:40px;white-space:pre;shape-inside:url(#rect5349);-inkscape-font-specification:Gayathri;font-stretch:normal;font-variant:normal" />
  <path
     style="fill:none;stroke:#e4e4e4;stroke-width:1px;stroke-linecap:butt;stroke-linejoin:miter;stroke-opacity:1"
     d="m -1318.9364,621.79945 c -244.7052,-135.12313 -399.9363,-168.34953 -566.0764,-213.9996 0,0 142.1963,35.00312 258.3011,74.88617 149.4822,51.34849 307.7753,139.11343 307.7753,139.11343 z"
     id="path951"
     sodipodi:nodetypes="ccsc" />
  <path
     style="fill:#e4e4e4;fill-opacity:1;stroke:#e4e4e4;stroke-width:0.828396;stroke-opacity:1"
     d="m 655.02095,513.23486 c -16.9705,-9.45202 -55.3881,-29.34143 -76.2125,-39.45635 -78.9041,-38.32586 -151.8468,-67.77865 -227.809,-91.98472 -53.5597,-17.0673 -131.5592,-39.29158 -180.5904,-51.4553 -7.5178,-1.86498 -14.3162,-3.66306 -15.1078,-3.99569 -1.2058,-0.50681 0.3907,-3.01831 9.8545,-15.50111 57.328,-75.6168 127.8852,-137.05344 209.0315,-182.01096 19.4876,-10.79671 24.4076,-12.61866 32.6262,-12.08183 7.1085,0.46433 10.9595,2.27018 17.4072,8.16314 6.7159,6.13783 11.3467,13.71892 22.0511,36.09848 12.8337,26.83187 36.8001,74.30524 47.1949,93.48539 46.1217,85.10183 98.0253,165.71538 156.0101,242.30594 6.3814,8.42894 12.8487,16.72433 14.3721,18.4342 4.8349,5.42707 4.2852,5.30248 -8.8279,-2.00119 z"
     id="path1915" />
  <path
     d="m 442.76543,150.1633 c -7.57954,-12.73833 -16.5715,-26.3454 -30.77423,-30.5877 -16.44769,-4.91282 -33.44579,4.49576 -47.87339,13.79667 a 1392.1569,1392.1569 0 0 0 -124.53516,90.40557 l 0.0398,0.49267 q 46.24693,-2.86115 92.49373,-5.72225 c 22.27561,-1.37812 45.31763,-2.96262 65.06793,-13.35625 7.49457,-3.94399 14.81034,-9.2314 23.27356,-9.54365 10.51475,-0.38789 19.62823,7.01808 26.77674,14.73885 42.28571,45.67087 54.12494,115.13933 101.6433,155.33785 A 1516.9945,1516.9945 0 0 0 442.76543,150.1633 Z"
     fill="#f2f2f2"
     id="path2"
     style="fill:#b3b3b3" />
  <path
     style="fill:#e4e4e4;fill-opacity:1;stroke:#e4e4e4;stroke-width:0.270634;stroke-opacity:1"
     d="m 30.744122,245.21685 c 3.30013,-3.06032 12.37396,-10.9481 17.45591,-15.17423 25.85146,-21.49799 52.445828,-39.67831 82.812288,-56.61176 22.2802,-12.42425 34.93277,-16.8888 47.90407,-16.90326 9.03538,-0.0101 16.96454,1.92737 25.71026,6.28216 9.59987,4.78011 17.64904,10.86638 27.74239,20.97704 4.77438,4.78256 14.2827,15.1315 13.98708,15.22365 -0.10291,0.0321 -3.23174,0.43568 -6.95296,0.89689 -21.18515,2.62567 -46.74264,6.88996 -71.98872,12.01137 -30.76621,6.24123 -65.33188,14.76905 -117.590598,29.01119 -10.64269,2.90047 -19.59392,5.33393 -19.89162,5.40769 -0.3425,0.0849 -0.0444,-0.3267 0.8119,-1.12074 z"
     id="path2859" />
  <path
     d="m 204.25851,162.0669 c -18.75411,-9.63866 -42.77137,-7.75087 -60.00508,4.29119 a 855.84708,855.84708 0 0 1 97.37056,22.72581 c -13.28259,-7.78393 -23.67276,-19.97959 -37.36548,-27.017 z"
     fill="#f2f2f2"
     id="path10"
     style="fill:#b3b3b3" />
  <g
     id="g3653"
     transform="translate(-388.68269,62.785172)">
    <path
       d="m 946.68002,270.44036 36.90462,-13.498 18.32326,-6.70183 c 5.9676,-2.18267 11.9208,-4.66747 18.0899,-6.23036 a 28.53871,28.53871 0 0 1 16.3736,0.20862 37.73753,37.73753 0 0 1 12.771,7.91666 103.63965,103.63965 0 0 1 10.4748,11.18643 c 3.9893,4.79426 7.9197,9.63877 11.8677,14.46706 q 24.4414,29.89094 48.5631,60.04134 24.1212,30.14991 47.9198,60.556 23.8568,30.48041 47.3855,61.21573 2.8823,3.76518 5.7596,7.53415 c 1.0598,1.38809 3.4495,0.0196 2.3748,-1.38808 q -23.7023,-31.04444 -47.735,-61.83464 -24.0917,-30.86383 -48.5164,-61.46586 -24.4242,-30.60141 -49.1786,-60.93743 -6.167,-7.55761 -12.3544,-15.09858 c -3.4795,-4.24073 -6.9198,-8.52718 -10.7363,-12.47427 -7.0054,-7.24516 -15.7577,-13.64794 -26.2344,-13.82166 -6.1597,-0.10214 -12.121,1.85248 -17.844,3.92287 -6.1696,2.232 -12.32451,4.50571 -18.48629,6.75941 l -37.16269,13.59243 -9.29067,3.3981 c -1.64875,0.603 -0.93651,3.2619 0.73111,2.652 z"
       fill="#e4e4e4"
       id="path8-5" />
    <path
       style="fill:none;stroke:#e4e4e4;stroke-width:1px;stroke-linecap:butt;stroke-linejoin:miter;stroke-opacity:1"
       d="M 946.68002,270.44036 1221.9308,465.66554 Z"
       id="path3186" />
    <path
       style="fill:#e4e4e4;fill-opacity:1;stroke:#e4e4e4;stroke-width:0.626161;stroke-opacity:1"
       d="m 1081.0229,364.74327 c -72.8143,-51.64608 -132.38955,-94.08014 -132.38955,-94.29791 0,-0.59842 65.63015,-24.54245 71.37105,-26.03851 11.6302,-3.03078 20.839,0.0148 31.2607,10.33866 9.2239,9.13745 72.8536,87.87921 122.8337,152.00688 24.1243,30.95312 39.7931,51.41329 39.5553,51.65109 -0.1329,0.13296 -59.817,-42.01414 -132.6312,-93.66021 z"
       id="path3437" />
  </g>
  <path
     d="m 663.87143,320.67055 c -3.6328,-4.42207 -7.56046,-9.05222 -12.99421,-10.84836 l -5.07308,0.20008 a 575.436,575.436 0 0 0 153.26729,175.22052 q -67.6,-82.28608 -135.2,-164.57224 z"
     fill="#f2f2f2"
     id="path14"
     style="fill:#b3b3b3" />
  <g
     id="g31010"
     transform="translate(617.4872,-68.63474)">
    <text
       xml:space="preserve"
       id="text9731-4"
       style="font-style:normal;font-weight:normal;font-size:306.667px;line-height:1.25;font-family:sans-serif;white-space:pre;shape-inside:url(#rect9733-9);fill:#b3b3b3;fill-opacity:1;stroke:none"
       transform="translate(-671.30012,34.227585)"><tspan
         x="93.867188"
         y="469.84599"
         id="tspan4421"><tspan
           style="font-family:Navilu;-inkscape-font-specification:Navilu"
           id="tspan4419">404</tspan></tspan></text>
    <text
       xml:space="preserve"
       id="text9731"
       style="font-style:normal;font-weight:normal;font-size:306.667px;line-height:1.25;font-family:sans-serif;white-space:pre;shape-inside:url(#rect9733);fill:#3f3d56;fill-opacity:1;stroke:none"
       transform="translate(-680.6266,27.963592)"><tspan
         x="93.867188"
         y="469.84599"
         id="tspan4425"><tspan
           style="font-family:Navilu;-inkscape-font-specification:Navilu"
           id="tspan4423">404</tspan></tspan></text>
  </g>
  <g
     id="g904"
     transform="matrix(0.58878047,0,0,0.61967044,518.56519,292.69655)">
    <path
       d="m 516.80274,419.17215 a 6.871,6.871 0 0 1 -1.63629,-10.408 l -8.929,-89.60106 14.90956,0.98936 4.13039,88.22976 a 6.90824,6.90824 0 0 1 -8.47469,10.79 z"
       transform="translate(-152.0356,-183.60363)"
       fill="#9e616a"
       id="path18-3" />
    <path
       d="m 527.18721,315.84429 -3.90892,29.70882 0.54263,18.20805 -16.3981,1.50139 -3.28652,-15.14384 -1.81064,-40.092 a 11.9643,11.9643 0 0 1 10.57038,-12.424 v 0 a 11.96429,11.96429 0 0 1 13.2427,10.31532 z"
       transform="translate(-152.0356,-183.60363)"
       fill="#2f2e41"
       id="path20" />
    <polygon
       points="297.674,355.274 312.355,355.275 312.353,393.642 302.406,393.642 "
       fill="#9e616a"
       id="polygon22" />
    <path
       d="m 466.92557,586.888 -32.07368,-0.001 v -0.40568 a 12.48465,12.48465 0 0 1 12.484,-12.48377 h 7.9e-4 l 19.58951,7.9e-4 z"
       transform="translate(-152.0356,-183.60363)"
       fill="#2f2e41"
       id="path24-5" />
    <polygon
       points="379.809,355.274 394.49,355.275 394.489,393.642 384.542,393.642 "
       fill="#9e616a"
       id="polygon26" />
    <path
       d="m 549.061,586.888 -32.07368,-0.001 v -0.40568 a 12.48464,12.48464 0 0 1 12.484,-12.48377 h 7.9e-4 l 19.58951,7.9e-4 z"
       transform="translate(-152.0356,-183.60363)"
       fill="#2f2e41"
       id="path28-6" />
    <circle
       cx="355.80798"
       cy="78.310593"
       r="21.56632"
       fill="#9e616a"
       id="circle30" />
    <path
       d="m 505.0569,292.23609 14.96655,1.71046 v 0 a 39.82721,39.82721 0 0 1 5.09255,35.96325 l -11.293,32.669 c 0,0 15.67661,31.42737 15.67661,60.60613 0,29.17876 29.8552,133.33193 29.8552,133.33193 l -42.02416,4.3836 -18.3365,-110.95277 -25.26863,110.50559 -28.84652,-4.69594 15.888,-144.8847 10.49876,-47.688 0.44724,-23.25608 c 0,0 -4.46406,-17.45033 6.70848,-28.62287 L 492.062,292.2983 Z"
       transform="translate(-152.0356,-183.60363)"
       fill="#2f2e41"
       id="path32" />
    <path
       d="m 482.70367,254.21223 h 31.691 v -13.814 c -6.95581,-2.76342 -13.76244,-5.11356 -17.877,0 a 13.8141,13.8141 0 0 0 -13.814,13.814 z"
       transform="translate(-152.0356,-183.60363)"
       fill="#2f2e41"
       id="path34" />
    <path
       d="m 516.14919,237.96044 c 18.94548,0 24.24834,23.74741 24.24834,37.14452 0,7.47142 -3.37891,10.14368 -8.68852,11.04788 l -1.87515,-10.0007 -4.39186,10.43105 c -1.49146,0.007 -3.05832,-0.0214 -4.6827,-0.0516 l -1.48909,-3.06616 -3.32059,3.01115 c -13.2994,0.0198 -24.04836,1.95847 -24.04836,-11.37164 -10e-6,-13.39711 4.65056,-37.14452 24.24793,-37.14452 z"
       transform="translate(-152.0356,-183.60363)"
       fill="#2f2e41"
       id="path36" />
    <polygon
       points="333.17,135.294 327.917,150.592 336.096,185.524 335.295,150.737 "
       opacity="0.2"
       id="polygon38" />
    <path
       d="m 527.98917,364.48791 h -23.81494 v -70 h 23.81494 a 17.20442,17.20442 0 0 1 17.18506,17.18509 v 35.62988 a 17.20442,17.20442 0 0 1 -17.18506,17.18503 z"
       transform="translate(-152.0356,-183.60363)"
       fill="#5e72e4"
       id="path40" />
    <path
       d="m 524.67423,326.98791 a 3.00328,3.00328 0 0 1 -3,-3 v -26 h 6 v 26 a 3.00328,3.00328 0 0 1 -3,3 z"
       transform="translate(-152.0356,-183.60363)"
       fill="#3f3d56"
       id="path42" />
    <path
       d="m 531.88687,358.98791 h -17.42529 a 3.79182,3.79182 0 0 1 -3.78735,-3.7876 v -10.4248 a 3.79182,3.79182 0 0 1 3.78735,-3.7876 h 17.42529 a 3.79183,3.79183 0 0 1 3.78736,3.7876 v 10.4248 a 3.79183,3.79183 0 0 1 -3.78736,3.7876 z"
       transform="translate(-152.0356,-183.60363)"
       fill="#3f3d56"
       id="path44" />
    <path
       d="m 482.27139,337.69494 c -4.51025,-5.32129 -7.09716,-13.05127 -7.09716,-21.207 0,-15.43945 9.19629,-28 20.5,-28 6.0686,0 11.78588,3.627 15.686,9.95068 l -1.70215,1.04981 c -3.52783,-5.71973 -8.62475,-9.00049 -13.98388,-9.00049 -10.20093,0 -18.5,11.66357 -18.5,26 0,7.68994 2.41406,14.94824 6.623,19.91406 z"
       transform="translate(-152.0356,-183.60363)"
       fill="#5e72e4"
       id="path46" />
    <path
       d="m 491.99179,422.79272 a 7.52837,7.52837 0 0 1 -1.17145,-11.48425 l -4.44215,-98.55947 16.25311,1.96876 -0.72626,96.774 a 7.56916,7.56916 0 0 1 -9.91325,11.301 z"
       transform="translate(-152.0356,-183.60363)"
       fill="#9e616a"
       id="path48" />
    <path
       d="m 509.4957,310.36344 -6.0427,32.27078 -0.48877,19.95291 -18.02973,0.66777 -2.69536,-16.76362 0.40248,-43.97062 a 13.10892,13.10892 0 0 1 12.30319,-12.96419 v 0 a 13.10892,13.10892 0 0 1 13.875,12.07282 z"
       transform="translate(-152.0356,-183.60363)"
       fill="#2f2e41"
       id="path50" />
  </g>
</svg>
